/* XPM */
static char * max_xpm[] = {
"15 15 5 1",
" 	c None",
".	c #FFFFFF",
"+	c #5F5F5F",
"@	c #BFBFBF",
"#	c #000000",
"..............+",
".@@@@@@@@@@@@++",
".@@#########@++",
".@@#########@++",
".@@#@@@@@@@#@++",
".@@#@@@@@@@#@++",
".@######@@@#@++",
".@######@@@#@++",
".@#@@@@#@@@#@++",
".@#@@@@#@@@#@++",
".@#@@@@#####@++",
".@######@@@@@++",
".@@@@@@@@@@@@++",
".++++++++++++++",
"+++++++++++++++"};
