#define odesk_width 57
#define odesk_height 41
static unsigned char odesk_bits[] = {
   0x00, 0x00, 0x00, 0x00, 0x38, 0x00, 0x00, 0x00, 0x00, 0x00, 0x00, 0x00,
   0xff, 0x00, 0x00, 0x00, 0x00, 0x00, 0x00, 0xe0, 0xff, 0x07, 0x00, 0x00,
   0x00, 0x00, 0x00, 0xfc, 0xef, 0x1f, 0x00, 0x00, 0x00, 0x00, 0x80, 0xff,
   0x81, 0xff, 0x00, 0x00, 0x00, 0x00, 0xf0, 0x3f, 0x00, 0xfc, 0x03, 0x00,
   0x00, 0x00, 0xfe, 0xff, 0x01, 0xf0, 0x1f, 0x00, 0x00, 0xc0, 0xff, 0xf8,
   0x07, 0x80, 0x7f, 0x00, 0x00, 0xf8, 0x1f, 0xe0, 0x3f, 0xf0, 0xff, 0x01,
   0x00, 0xff, 0x03, 0x00, 0xff, 0xfe, 0x7f, 0x01, 0xe0, 0xff, 0xc3, 0x01,
   0xff, 0xff, 0x8f, 0x01, 0xfc, 0xff, 0x3f, 0xe6, 0xff, 0xff, 0x71, 0x01,
   0xff, 0xff, 0x03, 0xf8, 0xff, 0x3f, 0x0e, 0x01, 0xfd, 0xff, 0x00, 0xc0,
   0xff, 0xc7, 0x01, 0x01, 0xf1, 0xff, 0x00, 0xc0, 0xff, 0x38, 0x00, 0x01,
   0x81, 0xff, 0x07, 0xf8, 0x1f, 0x17, 0x00, 0x01, 0x01, 0xfe, 0x1f, 0xff,
   0xe3, 0x10, 0x80, 0x01, 0x01, 0xf0, 0xff, 0x7f, 0x1c, 0x10, 0x70, 0x01,
   0x01, 0xc0, 0xff, 0x8f, 0x03, 0x10, 0x0e, 0x01, 0x61, 0x00, 0xfe, 0x71,
   0x00, 0xd0, 0x01, 0x01, 0x61, 0x00, 0x38, 0x0e, 0x00, 0x30, 0x00, 0x01,
   0x61, 0x00, 0xd0, 0x01, 0x00, 0x10, 0x00, 0x01, 0x41, 0x60, 0x30, 0x01,
   0x00, 0x10, 0x80, 0x01, 0xc1, 0x60, 0x10, 0x01, 0x00, 0x10, 0x70, 0x01,
   0xc1, 0x60, 0x90, 0x03, 0x00, 0x10, 0x0e, 0x01, 0x81, 0x20, 0x70, 0x0c,
   0x00, 0xd0, 0x01, 0x01, 0x81, 0x31, 0x10, 0x70, 0x00, 0x30, 0x00, 0x01,
   0x81, 0x31, 0x10, 0x80, 0x01, 0x10, 0x00, 0x01, 0x81, 0x19, 0x10, 0x00,
   0x0e, 0x10, 0xc0, 0x01, 0x01, 0x1b, 0x10, 0x00, 0x30, 0x10, 0x38, 0x00,
   0x01, 0x1b, 0x10, 0x00, 0xc0, 0x11, 0x06, 0x00, 0x01, 0x0e, 0x10, 0x00,
   0x00, 0xd6, 0x01, 0x00, 0x03, 0x06, 0x10, 0x00, 0x00, 0x38, 0x00, 0x00,
   0x0c, 0x04, 0x10, 0x00, 0x00, 0x00, 0x00, 0x00, 0x30, 0x00, 0x10, 0x00,
   0x00, 0x00, 0x00, 0x00, 0xc0, 0x01, 0x10, 0x00, 0x00, 0x00, 0x00, 0x00,
   0x00, 0x06, 0x10, 0x00, 0x00, 0x00, 0x00, 0x00, 0x00, 0x38, 0x10, 0x00,
   0x00, 0x00, 0x00, 0x00, 0x00, 0xc0, 0x10, 0x00, 0x00, 0x00, 0x00, 0x00,
   0x00, 0x00, 0x13, 0x00, 0x00, 0x00, 0x00, 0x00, 0x00, 0x00, 0x1c, 0x00,
   0x00, 0x00, 0x00, 0x00 };
