#define oicon_width 42
#define oicon_height 42
static unsigned char oicon_bits[] = {
   0x00, 0x00, 0x08, 0x00, 0x00, 0x00, 0x00, 0x00, 0x14, 0x00, 0x00, 0x00,
   0x00, 0x00, 0x22, 0x00, 0x00, 0x00, 0x00, 0x00, 0x49, 0x00, 0x00, 0x00,
   0x00, 0x80, 0x9c, 0x00, 0x00, 0x00, 0x00, 0x40, 0x3e, 0x01, 0x00, 0x00,
   0x00, 0x20, 0x77, 0x02, 0x00, 0x00, 0x00, 0x90, 0xeb, 0x04, 0x00, 0x00,
   0x00, 0xc8, 0xd5, 0x09, 0x00, 0x00, 0x00, 0xe4, 0xa2, 0x13, 0x00, 0x00,
   0x00, 0x72, 0x55, 0x27, 0x00, 0x00, 0x00, 0xa1, 0x88, 0x72, 0x00, 0x00,
   0x80, 0x4c, 0x55, 0x99, 0x00, 0x00, 0x40, 0x9e, 0xa2, 0x3c, 0x01, 0x00,
   0x20, 0x37, 0x55, 0x76, 0x02, 0x00, 0x90, 0x6b, 0x2a, 0xeb, 0x04, 0x00,
   0xc8, 0xd5, 0x94, 0xd5, 0x09, 0x00, 0xe4, 0xa2, 0xc9, 0xaa, 0x13, 0x00,
   0x72, 0x55, 0x63, 0x55, 0x27, 0x00, 0xb9, 0x88, 0xb2, 0xaa, 0xce, 0x00,
   0x53, 0x55, 0x59, 0x55, 0x25, 0x01, 0xa6, 0xa2, 0x9c, 0xaa, 0x12, 0x03,
   0x4c, 0x55, 0x36, 0x55, 0x89, 0x01, 0x98, 0x2a, 0x6b, 0xaa, 0xc4, 0x00,
   0x30, 0x95, 0xd5, 0x54, 0x62, 0x00, 0x60, 0xca, 0xaa, 0x29, 0x31, 0x00,
   0xc0, 0x64, 0x55, 0x93, 0x18, 0x00, 0x80, 0xb1, 0xaa, 0x46, 0x0c, 0x00,
   0x00, 0x5b, 0x55, 0x25, 0x06, 0x00, 0x00, 0xae, 0xaa, 0x12, 0x03, 0x00,
   0x00, 0x4c, 0x55, 0x89, 0x01, 0x00, 0x00, 0x98, 0xaa, 0xc4, 0x00, 0x00,
   0x00, 0x30, 0x55, 0x62, 0x00, 0x00, 0x00, 0x60, 0x2a, 0x31, 0x00, 0x00,
   0x00, 0xc0, 0x94, 0x18, 0x00, 0x00, 0x00, 0x80, 0x49, 0x0c, 0x00, 0x00,
   0x00, 0x00, 0x23, 0x06, 0x00, 0x00, 0x00, 0x00, 0x16, 0x03, 0x00, 0x00,
   0x00, 0x00, 0x8c, 0x01, 0x00, 0x00, 0x00, 0x00, 0xc8, 0x00, 0x00, 0x00,
   0x00, 0x00, 0x78, 0x00, 0x00, 0x00, 0x00, 0x00, 0x30, 0x00, 0x00, 0x00 };
